<svg width="109" height="109" viewBox="0 0 109 109" fill="none" xmlns="http://www.w3.org/2000/svg">
<g clip-path="url(#clip0_467_463)">
<rect width="109" height="109" fill="#BEB1FC"/>
<path d="M-20.2 29.3C-24.8389 29.3 -28.6 33.0611 -28.6 37.7001V73.4001V75.5001V77.6001C-28.6 79.9206 -26.7205 81.8001 -24.4 81.8001C-22.0795 81.8001 -20.2 79.9206 -20.2 77.6001V76.8249C-16.4347 77.2419 -11.5321 77.6001 -5.50001 77.6001C0.532047 77.6001 5.43465 77.2419 9.19999 76.8249V77.6001C9.19999 79.9206 11.0795 81.8001 13.4 81.8001C15.7205 81.8001 17.6 79.9206 17.6 77.6001V75.5001V73.4001V37.7001C17.6 33.0611 13.8389 29.3 9.19999 29.3H-20.2ZM-13.9 33.5H2.89999C4.05919 33.5 4.99999 34.4408 4.99999 35.6C4.99999 36.7593 4.05919 37.7001 2.89999 37.7001H-13.9C-15.0592 37.7001 -16 36.7593 -16 35.6C-16 34.4408 -15.0592 33.5 -13.9 33.5ZM-24.4 41.9001H13.4V53.3024C13.4 54.3188 12.6831 55.1932 11.6814 55.3696C9.02704 55.8316 3.30109 56.6001 -5.50001 56.6001C-14.3011 56.6001 -20.0271 55.8296 -22.6815 55.3655C-23.6832 55.1912 -24.4 54.3188 -24.4 53.3024V41.9001ZM-20.2 62.9001C-17.8795 62.9001 -16 64.7796 -16 67.1001C-16 69.4206 -17.8795 71.3001 -20.2 71.3001C-22.5205 71.3001 -24.4 69.4206 -24.4 67.1001C-24.4 64.7796 -22.5205 62.9001 -20.2 62.9001ZM9.19999 62.9001C11.5205 62.9001 13.4 64.7796 13.4 67.1001C13.4 69.4206 11.5205 71.3001 9.19999 71.3001C6.87949 71.3001 4.99999 69.4206 4.99999 67.1001C4.99999 64.7796 6.87949 62.9001 9.19999 62.9001Z" fill="white"/>
<path fill-rule="evenodd" clip-rule="evenodd" d="M54.5 59.2622C53.6433 59.2787 52.7919 59.1241 51.9956 58.8077C51.1993 58.4912 50.4741 58.0191 49.8624 57.419C49.2507 56.819 48.7648 56.103 48.4331 55.3129C48.1014 54.5228 47.9305 53.6746 47.9305 52.8177C47.9305 51.9608 48.1014 51.1125 48.4331 50.3224C48.7648 49.5324 49.2507 48.8164 49.8624 48.2163C50.4741 47.6162 51.1993 47.1442 51.9956 46.8277C52.7919 46.5112 53.6433 46.3567 54.5 46.3731C56.1878 46.4055 57.7955 47.0987 58.9776 48.3038C60.1598 49.5089 60.822 51.1296 60.822 52.8177C60.822 54.5058 60.1598 56.1265 58.9776 57.3316C57.7955 58.5366 56.1878 59.2298 54.5 59.2622M49.4555 31.4629C39.3143 33.7262 32.2035 43.2714 32.6025 53.6549C32.916 61.8106 37.9201 69.1066 52.809 83.4207C53.7495 84.3232 55.2552 84.328 56.1981 83.4231C71.5976 68.6197 76.4236 61.3237 76.4236 52.8165C76.4236 39.0652 63.7577 28.2709 49.4555 31.4652" fill="white"/>
<path d="M109.713 33.2C108.808 33.2 108.006 33.7766 107.72 34.6355L106.801 37.4H103.221C99.6549 37.4 96.4684 39.6611 95.2924 43.0232L90.9693 55.373C88.6614 56.8913 87.2 59.5136 87.2 62.399V77.3C87.2 79.6205 89.0795 81.5 91.4 81.5C93.7205 81.5 95.6 79.6205 95.6 77.3V74.6504C95.6 74.6504 106.69 75.2 114.5 75.2C122.31 75.2 133.4 74.6504 133.4 74.6504V77.3C133.4 79.6205 135.28 81.5 137.6 81.5C139.921 81.5 141.8 79.6205 141.8 77.3V62.399C141.8 59.5136 140.334 56.8892 138.031 55.373L133.712 43.0273C132.534 39.6631 129.345 37.4 125.779 37.4H122.199L121.28 34.6355C120.994 33.7766 120.19 33.2 119.287 33.2H109.713ZM103.221 41.6H125.779C127.564 41.6 129.155 42.7294 129.746 44.4136L132.149 51.2878C132.527 52.3693 131.628 53.4598 130.496 53.2771C126.378 52.6114 121.084 52.1 114.5 52.1C107.917 52.1 102.622 52.6114 98.5039 53.2771C97.372 53.4598 96.473 52.3693 96.851 51.2878L99.2545 44.4136C99.8446 42.7294 101.436 41.6 103.221 41.6ZM96.65 60.5C98.3888 60.5 99.8 61.9112 99.8 63.65C99.8 65.3888 98.3888 66.8 96.65 66.8C94.9112 66.8 93.5 65.3888 93.5 63.65C93.5 61.9112 94.9112 60.5 96.65 60.5ZM108.2 60.5H120.8C121.959 60.5 122.9 61.4408 122.9 62.6C122.9 63.7592 121.959 64.7 120.8 64.7H108.2C107.041 64.7 106.1 63.7592 106.1 62.6C106.1 61.4408 107.041 60.5 108.2 60.5ZM132.35 60.5C134.089 60.5 135.5 61.9112 135.5 63.65C135.5 65.3888 134.089 66.8 132.35 66.8C130.611 66.8 129.2 65.3888 129.2 63.65C129.2 61.9112 130.611 60.5 132.35 60.5Z" fill="white"/>
</g>
<defs>
<clipPath id="clip0_467_463">
<rect width="109" height="109" fill="white"/>
</clipPath>
</defs>
</svg>
