<svg width="24" height="24" viewBox="0 0 24 24" fill="none" xmlns="http://www.w3.org/2000/svg">
<g clip-path="url(#clip0_253_543)">
<path fill-rule="evenodd" clip-rule="evenodd" d="M13.8097 9.6L13.8097 19.997L11.3157 17.503C11.1065 17.3117 10.8315 17.2085 10.548 17.215C10.2646 17.2214 9.99458 17.3369 9.79418 17.5374C9.59378 17.7379 9.47845 18.008 9.47222 18.2915C9.46599 18.5749 9.56933 18.8498 9.76072 19.059L14.1327 23.43C14.2344 23.533 14.3555 23.6148 14.4891 23.6707C14.6226 23.7265 14.766 23.7553 14.9107 23.7553C15.0555 23.7553 15.1988 23.7265 15.3324 23.6707C15.4659 23.6148 15.587 23.533 15.6887 23.43L20.0587 19.059C20.1631 18.9574 20.2463 18.836 20.3034 18.702C20.3605 18.568 20.3904 18.424 20.3914 18.2783C20.3924 18.1327 20.3645 17.9882 20.3092 17.8535C20.254 17.7187 20.1725 17.5962 20.0695 17.4932C19.9666 17.3901 19.8441 17.3086 19.7094 17.2532C19.5746 17.1979 19.4302 17.1698 19.2846 17.1708C19.1389 17.1717 18.9949 17.2015 18.8608 17.2585C18.7268 17.3156 18.6054 17.3986 18.5037 17.503L16.0097 19.997L16.0097 9.6C16.0097 9.30826 15.8938 9.02847 15.6875 8.82218C15.4813 8.61589 15.2015 8.5 14.9097 8.5C14.618 8.5 14.3382 8.61589 14.1319 8.82218C13.9256 9.02847 13.8097 9.30826 13.8097 9.6ZM10.5723 14.156L10.5723 3.75903L13.0663 6.25203C13.2735 6.45377 13.5519 6.56577 13.8411 6.56377C14.1303 6.56177 14.4071 6.44595 14.6116 6.24136C14.816 6.03678 14.9317 5.75991 14.9335 5.47068C14.9353 5.18146 14.8231 4.90316 14.6213 4.69603L10.2503 0.324033C10.1484 0.221355 10.0272 0.13986 9.89364 0.0842457C9.76012 0.0286318 9.6169 -4.70972e-07 9.47225 -4.77295e-07C9.32761 -4.83617e-07 9.18439 0.0286317 9.05086 0.0842457C8.91733 0.13986 8.79614 0.221355 8.69425 0.324033L4.32226 4.69603C4.22009 4.7982 4.13905 4.91949 4.08376 5.05298C4.02846 5.18647 4 5.32954 4 5.47403C4 5.61852 4.02846 5.76159 4.08376 5.89508C4.13905 6.02857 4.22009 6.14986 4.32226 6.25203C4.42443 6.3542 4.54572 6.43525 4.67921 6.49054C4.8127 6.54583 4.95577 6.57429 5.10025 6.57429C5.24474 6.57429 5.38781 6.54583 5.5213 6.49054C5.65479 6.43525 5.77609 6.3542 5.87825 6.25203L8.37225 3.75803L8.37225 14.155C8.37225 14.4467 8.48814 14.7265 8.69443 14.9328C8.90072 15.1391 9.18051 15.255 9.47225 15.255C9.76399 15.255 10.0438 15.1391 10.2501 14.9328C10.4564 14.7265 10.5723 14.4477 10.5723 14.156Z" fill="#9496A1"/>
</g>
<defs>
<clipPath id="clip0_253_543">
<rect width="24" height="24" fill="white" transform="translate(24) rotate(90)"/>
</clipPath>
</defs>
</svg>
