<svg width="29" height="28" viewBox="0 0 29 28" fill="none" xmlns="http://www.w3.org/2000/svg">
<path fill-rule="evenodd" clip-rule="evenodd" d="M21.0753 4.30029C20.8918 3.88851 20.593 3.5387 20.2149 3.29315C19.8369 3.0476 19.3958 2.91682 18.945 2.91663H10.055C9.60418 2.91682 9.16308 3.0476 8.78502 3.29315C8.40696 3.5387 8.10813 3.88851 7.92465 4.30029L5.96465 8.69513H23.0353L21.0753 4.30029ZM21.01 18.0483C20.7917 18.0483 20.5755 18.0053 20.3738 17.9217C20.1721 17.8382 19.9888 17.7157 19.8344 17.5614C19.68 17.407 19.5576 17.2237 19.474 17.022C19.3905 16.8203 19.3475 16.6041 19.3475 16.3858C19.3475 16.1675 19.3905 15.9513 19.474 15.7496C19.5576 15.5479 19.68 15.3646 19.8344 15.2102C19.9888 15.0558 20.1721 14.9334 20.3738 14.8498C20.5755 14.7663 20.7917 14.7233 21.01 14.7233C21.4509 14.7233 21.8738 14.8984 22.1855 15.2102C22.4973 15.522 22.6725 15.9449 22.6725 16.3858C22.6725 16.8267 22.4973 17.2496 22.1855 17.5614C21.8738 17.8731 21.4509 18.0483 21.01 18.0483ZM7.98765 18.0483C7.76933 18.0483 7.55314 18.0053 7.35144 17.9217C7.14973 17.8382 6.96646 17.7157 6.81208 17.5614C6.65771 17.407 6.53525 17.2237 6.4517 17.022C6.36815 16.8203 6.32515 16.6041 6.32515 16.3858C6.32515 16.1675 6.36815 15.9513 6.4517 15.7496C6.53525 15.5479 6.65771 15.3646 6.81208 15.2102C6.96646 15.0558 7.14973 14.9334 7.35144 14.8498C7.55314 14.7663 7.76933 14.7233 7.98765 14.7233C8.42857 14.7233 8.85144 14.8984 9.16322 15.2102C9.47499 15.522 9.65015 15.9449 9.65015 16.3858C9.65015 16.8267 9.47499 17.2496 9.16322 17.5614C8.85144 17.8731 8.42857 18.0483 7.98765 18.0483ZM23.8123 10.4451H5.18648C4.56764 10.4451 3.97415 10.691 3.53657 11.1285C3.09898 11.5661 2.85315 12.1596 2.85315 12.7785V23.9166C2.85315 24.226 2.97607 24.5228 3.19486 24.7416C3.41365 24.9604 3.7104 25.0833 4.01982 25.0833H6.87115C7.18057 25.0833 7.47732 24.9604 7.69611 24.7416C7.9149 24.5228 8.03782 24.226 8.03782 23.9166V22.3253H20.9622V23.9166C20.9622 24.226 21.0851 24.5228 21.3039 24.7416C21.5227 24.9604 21.8194 25.0833 22.1288 25.0833H24.9802C25.2896 25.0833 25.5863 24.9604 25.8051 24.7416C26.0239 24.5228 26.1468 24.226 26.1468 23.9166V12.7773C26.1468 11.4881 25.1038 10.444 23.8135 10.444" fill="#6344F7"/>
</svg>
