<svg width="28" height="28" viewBox="0 0 28 28" fill="none" xmlns="http://www.w3.org/2000/svg">
<path fill-rule="evenodd" clip-rule="evenodd" d="M16.1175 14L22.7103 7.40716C22.8404 7.27716 22.9436 7.12282 23.014 6.95294C23.0844 6.78306 23.1207 6.60097 23.1208 6.41707C23.1208 6.23318 23.0847 6.05107 23.0143 5.88115C22.944 5.71123 22.8409 5.55682 22.7109 5.42675C22.5809 5.29667 22.4266 5.19348 22.2567 5.12305C22.0868 5.05263 21.9047 5.01635 21.7208 5.0163C21.5369 5.01624 21.3548 5.05241 21.1849 5.12273C21.015 5.19306 20.8606 5.29616 20.7305 5.42616L14.1376 12.0202L7.54365 5.42616C7.27807 5.1781 6.92649 5.04293 6.56313 5.04918C6.19978 5.05543 5.85306 5.20261 5.59616 5.45966C5.33927 5.7167 5.19229 6.06351 5.18626 6.42687C5.18022 6.79023 5.3156 7.14173 5.56382 7.40716L12.1578 14L5.56382 20.5928C5.36893 20.7891 5.23643 21.0385 5.18295 21.3099C5.12948 21.5812 5.15744 21.8623 5.2633 22.1178C5.36917 22.3733 5.54821 22.5918 5.77793 22.7458C6.00764 22.8998 6.27776 22.9824 6.55432 22.9833C6.91248 22.9833 7.27065 22.8468 7.54365 22.5738L14.1376 15.9798L20.7305 22.5738C20.8603 22.7041 21.0146 22.8075 21.1845 22.878C21.3543 22.9485 21.5365 22.9848 21.7204 22.9848C21.9043 22.9848 22.0864 22.9485 22.2563 22.878C22.4262 22.8075 22.5805 22.7041 22.7103 22.5738C22.8405 22.4438 22.9437 22.2894 23.0142 22.1194C23.0847 21.9495 23.1209 21.7673 23.1209 21.5833C23.1209 21.3993 23.0847 21.2172 23.0142 21.0472C22.9437 20.8773 22.8405 20.7229 22.7103 20.5928L16.1175 14Z" fill="#9496A1"/>
</svg>
