<svg width="28" height="28" viewBox="0 0 28 28" fill="none" xmlns="http://www.w3.org/2000/svg">
<path fill-rule="evenodd" clip-rule="evenodd" d="M26.0866 24.3134L22.0768 18.7017C21.7456 18.2418 21.2653 17.9108 20.7176 17.7649L20.6546 17.8407C19.6105 19.0774 18.2828 20.4657 16.4745 22.2134C15.8112 22.855 14.924 23.2128 14.0011 23.2109C13.0788 23.2134 12.1918 22.8559 11.529 22.2145C9.6833 20.4295 8.33463 19.0144 7.2823 17.7614C6.72974 17.9048 6.24477 18.237 5.91147 18.7005L1.90163 24.3134C1.77087 24.4966 1.69311 24.7122 1.67689 24.9367C1.66067 25.1612 1.70661 25.3858 1.80967 25.5859C1.91273 25.786 2.06893 25.9539 2.26112 26.071C2.45331 26.1882 2.67406 26.2501 2.89913 26.25H25.0891C26.0855 26.25 26.6641 25.1242 26.0855 24.3134" fill="#9496A1"/>
<path fill-rule="evenodd" clip-rule="evenodd" d="M14 7.35236C14.3107 7.34525 14.6197 7.4003 14.9089 7.51427C15.198 7.62823 15.4615 7.79882 15.6838 8.01601C15.9062 8.2332 16.0829 8.49262 16.2036 8.77904C16.3242 9.06546 16.3865 9.37311 16.3866 9.68391C16.3868 9.99472 16.3249 10.3024 16.2045 10.589C16.0841 10.8755 15.9076 11.1351 15.6855 11.3525C15.4634 11.5699 15.2001 11.7408 14.9111 11.855C14.622 11.9693 14.3131 12.0246 14.0023 12.0179C13.3835 12.018 12.7899 11.7723 12.3522 11.3349C11.9145 10.8974 11.6686 10.3039 11.6684 9.68511C11.6682 9.06627 11.9139 8.47271 12.3514 8.03502C12.7889 7.59733 13.3823 7.35135 14.0012 7.35119M13.1518 20.5369C13.3809 20.7559 13.6856 20.8781 14.0026 20.8778C14.3195 20.8776 14.6241 20.755 14.8528 20.5357C20.2405 15.33 21.9368 12.719 21.9368 9.68569C21.9368 4.54769 17.052 0.549524 11.6737 2.08136C8.27865 3.04969 6.06665 6.15536 6.06665 9.68569C6.06665 12.7214 7.76415 15.3312 13.1518 20.5357" fill="#9496A1"/>
</svg>
