<svg width="28" height="28" viewBox="0 0 28 28" fill="none" xmlns="http://www.w3.org/2000/svg">
<path fill-rule="evenodd" clip-rule="evenodd" d="M26.0867 24.3134L22.0769 18.7017C21.7456 18.2418 21.2654 17.9108 20.7177 17.7649L20.6547 17.8407C19.6105 19.0774 18.2829 20.4657 16.4745 22.2134C15.8113 22.855 14.924 23.2128 14.0012 23.2109C13.0788 23.2134 12.1919 22.8559 11.529 22.2145C9.68336 20.4295 8.33469 19.0144 7.28236 17.7614C6.7298 17.9048 6.24484 18.237 5.91153 18.7005L1.90169 24.3134C1.77093 24.4966 1.69318 24.7122 1.67695 24.9367C1.66073 25.1612 1.70667 25.3858 1.80973 25.5859C1.91279 25.786 2.06899 25.9539 2.26118 26.071C2.45337 26.1882 2.67412 26.2501 2.89919 26.25H25.0892C26.0855 26.25 26.6642 25.1242 26.0855 24.3134" fill="#6344F7"/>
<path fill-rule="evenodd" clip-rule="evenodd" d="M14 7.35236C14.3108 7.34525 14.6198 7.4003 14.9089 7.51427C15.1981 7.62823 15.4616 7.79882 15.6839 8.01601C15.9062 8.2332 16.0829 8.49262 16.2036 8.77904C16.3243 9.06546 16.3865 9.37311 16.3867 9.68391C16.3869 9.99472 16.3249 10.3024 16.2045 10.589C16.0841 10.8755 15.9077 11.1351 15.6856 11.3525C15.4635 11.5699 15.2002 11.7408 14.9111 11.855C14.6221 11.9693 14.3131 12.0246 14.0024 12.0179C13.3835 12.018 12.79 11.7723 12.3523 11.3349C11.9146 10.8974 11.6686 10.3039 11.6685 9.68511C11.6683 9.06627 11.914 8.47271 12.3515 8.03502C12.7889 7.59733 13.3824 7.35135 14.0012 7.35119M13.1519 20.5369C13.3809 20.7559 13.6857 20.8781 14.0026 20.8778C14.3195 20.8776 14.6241 20.755 14.8529 20.5357C20.2405 15.33 21.9369 12.719 21.9369 9.68569C21.9369 4.54769 17.052 0.549524 11.6737 2.08136C8.27871 3.04969 6.06671 6.15536 6.06671 9.68569C6.06671 12.7214 7.76421 15.3312 13.1519 20.5357" fill="#6344F7"/>
</svg>
